<svg id="Capa_1" enable-background="new 0 0 505.709 505.709" height="512" viewBox="0 0 505.709 505.709" width="512" xmlns="http://www.w3.org/2000/svg"><g id="XMLID_748_"><g id="COLORS_17_"><g id="XMLID_696_"><path id="XMLID_569_" d="m227.888 181.564c4.959-14.552 8.906-29.333 8.906-45.085 0-63.123-50.646-114.295-113.122-114.295-61.177 0-106.94 47.101-113.479 114.283-9.128 93.783 5.389 193.594 36.689 280.776 4.741 13.206 9.998 26.386 17.934 37.479 13.664 19.101 37.45 28.766 58.857 28.766 42.83 0 76.882-32.507 81.675-80.512 2.303-23.068-.629-46.33-1.82-69.505-1.724-33.539.314-67.5 7.412-100.183 3.85-17.732 11.102-34.569 16.948-51.724z" fill="#f072ae"/><path d="m123.672 22.184c-3.049 0-6.059.122-9.028.353 52.732 5.886 102.15 53.687 102.15 107.362 0 14.559-4.185 28.803-8.279 40.819-1.713 5.026-3.535 9.995-5.462 15.256-4.865 13.274-9.896 27-13.093 41.726-7.518 34.615-10.304 72.102-8.284 111.417.324 6.305.767 12.621 1.195 18.731 1.261 18.006 2.453 35.014.804 51.521-1.971 19.739-9.513 36.522-21.813 48.534-11.723 11.448-29.322 25.161-46.027 25.161 2.633.282 5.254.426 7.839.426 42.83 0 76.882-32.507 81.675-80.512 2.303-23.068-.628-46.33-1.82-69.505-1.724-33.539.314-67.5 7.412-100.183 3.851-17.734 11.103-34.571 16.949-51.726 4.959-14.552 8.906-29.333 8.906-45.085-.003-63.123-50.649-114.294-113.124-114.295z" fill="#ff3f62"/><path id="XMLID_649_" d="m227.888 181.564c4.959-14.552 8.906-29.334 8.906-45.084 0-9.829-1.229-19.369-3.539-28.47l-212.945 212.944c5.668 28.597 13.123 56.627 22.169 83.571l167.734-167.734c.24-1.167.472-2.337.725-3.501 3.852-17.734 11.104-34.571 16.95-51.726z" fill="#71e4bf"/><path d="m236.741 133.113c-.245-8.534-1.598-16.798-3.486-25.103l-16.623 16.623c2.76 46.028-27.033 92.367-32.563 138.304l26.146-26.146c7.18-34.934 27.573-67.206 26.526-103.678z" fill="#0ea8b2"/></g><g id="XMLID_707_"><path id="XMLID_727_" d="m277.821 181.564c-4.959-14.552-8.906-29.333-8.906-45.085 0-63.123 50.646-114.295 113.122-114.295 61.177 0 106.94 47.101 113.479 114.283 9.128 93.783-5.389 193.594-36.689 280.776-4.741 13.206-9.998 26.386-17.934 37.479-13.664 19.101-37.45 28.766-58.857 28.766-42.83 0-76.882-32.507-81.675-80.512-2.303-23.068.629-46.33 1.82-69.505 1.724-33.539-.314-67.5-7.412-100.183-3.85-17.732-11.102-34.569-16.948-51.724z" fill="#71e4bf"/><path d="m382.037 22.184c3.049 0 6.059.122 9.028.353-52.732 5.886-102.15 53.687-102.15 107.362 0 14.559 4.185 28.803 8.279 40.819 1.713 5.026 3.535 9.995 5.462 15.256 4.865 13.274 9.896 27 13.093 41.726 7.518 34.615 10.304 72.102 8.284 111.417-.324 6.305-.767 12.621-1.195 18.731-1.261 18.006-2.453 35.014-.804 51.521 1.971 19.739 9.513 36.522 21.813 48.534 11.723 11.448 29.322 25.161 46.027 25.161-2.633.282-5.254.426-7.839.426-42.83 0-76.882-32.507-81.675-80.512-2.303-23.068.628-46.33 1.82-69.505 1.724-33.539-.314-67.5-7.412-100.183-3.851-17.734-11.103-34.571-16.949-51.726-4.959-14.552-8.906-29.333-8.906-45.085.003-63.123 50.649-114.294 113.124-114.295z" fill="#0ea8b2"/><path id="XMLID_717_" d="m277.821 181.564c-4.959-14.552-8.906-29.334-8.906-45.084 0-9.829 1.229-19.369 3.539-28.47l212.944 212.944c-5.668 28.597-13.123 56.627-22.169 83.571l-167.734-167.734c-.24-1.167-.472-2.337-.725-3.501-3.851-17.734-11.103-34.571-16.949-51.726z" fill="#fff"/><path d="m268.968 133.113c.245-8.534 1.599-16.798 3.486-25.103l16.623 16.623c-2.76 46.028 27.033 92.367 32.563 138.304l-26.146-26.146c-7.18-34.934-27.572-67.206-26.526-103.678z" fill="#a7eed4"/></g></g><g id="LINES_18_"><path d="m15 194.496-15 .038c.013 5.032.088 10.139.223 15.18l14.994-.4c-.131-4.922-.204-9.907-.217-14.818z"/><g fill="#fff"><path d="m42.732 107.915 14.094 5.137c1.616-4.436 3.527-8.697 5.681-12.665l-13.186-7.153c-2.503 4.615-4.719 9.554-6.589 14.681z"/><path d="m35.804 138.96 14.93 1.453c.46-4.727 1.198-9.409 2.193-13.917l-14.646-3.235c-1.126 5.094-1.959 10.376-2.477 15.699z"/><path d="m75.436 82.741c.866-.877 2.329-2.25 4.014-3.765l-10.034-11.152c-1.359 1.224-3.271 2.977-4.655 4.379-2.28 2.31-4.481 4.812-6.541 7.437l11.799 9.26c1.71-2.179 3.533-4.251 5.417-6.159z"/></g><path d="m244.197 131.846c-.494-13.217-7.495-37.89-7.495-37.89-21.258-57.422-84.229-91.088-143.734-75.379-30.908 8.159-56.589 29.639-72.135 57.327-17.738 31.593-19.903 67.994-20.685 103.447l14.996.331c1.314-59.658 14.51-128.265 81.111-146.413 54.77-14.925 112.541 18.51 128.591 72.542l-60.885 60.885c-12.905-18.105-24.198-28.998-29.331-33.539v-21.32h-15v19.983c-52.434 25.197-82.708 82.87-100.157 135.669-1.411-11.925-2.519-23.884-3.264-35.87l-7.485.465 7.485-.466c-.155-2.498-.296-4.995-.422-7.493l-14.98.753c.128 2.557.272 5.114.432 7.671 1.789 28.828 5.519 57.534 10.974 85.896l-.037.037c6.699 33.99 16.03 67.094 27.048 99.906l.085-.085c12.001 33.697 29.778 63.132 67.307 70.926 29.581 6.144 60.799-4.063 81.072-26.385 24.28-26.733 27.283-62.193 25.457-96.704-2.242-42.379-4.367-83.651 3.955-125.63l.007-.007c7.206-36.826 28.532-70.185 27.09-108.657zm-219.36 172.292c2.998-13.692 29.215-124.032 101.008-158.679 5.109 4.713 15.509 15.204 27.274 32.08l-128.037 128.037c-.085-.479-.161-.959-.245-1.438zm19.809 82.597c-6.425-20.837-11.791-41.99-16.157-63.354l133.014-133.013c9.335 15.231 18.93 34.305 27.037 57.49l-142.704 142.704c-.4-1.273-.796-2.549-1.19-3.827zm153.238 15.497c-3.449 34.538-26.046 66.497-61.645 72.67-19.354 3.356-40.02-1.43-55.295-13.996-16.326-13.43-23.233-35.084-29.861-54.378l142.618-142.618c1.142 3.885 2.235 7.877 3.279 11.964-3.708 42.193 5.091 84.439.904 126.358zm24.477-227.823c-6.304 19.567-14.893 38.452-19.044 58.672l-3.034 3.034c-8.501-22.836-18.312-41.637-27.811-56.716l56.024-56.024c2.119 17.377-.792 34.453-6.135 51.034z"/><path d="m490.709 194.496c-.013 4.911-.086 9.896-.217 14.816l14.994.401c.135-5.041.21-10.148.223-15.18z"/><path d="m489.803 226.388c-.739 13.736-1.95 27.44-3.567 41.101-17.445-52.79-47.713-110.452-100.132-135.656v-19.996h-15v21.297c-5.121 4.527-16.43 15.426-29.358 33.562l-60.885-60.885c16.081-54.133 73.782-87.331 128.591-72.542 66.615 17.975 79.8 86.889 81.111 146.413l14.996-.33c-.766-34.735-2.81-70.375-19.664-101.557-15.448-28.581-41.507-50.863-73.156-59.218-59.503-15.709-122.473 17.955-143.732 75.379 0 0-8.328 31.126-7.455 47.813 1.81 34.616 20.538 65.132 27.05 98.735l.007.007c8.32 41.97 6.173 83.262 3.955 125.63-1.807 34.52 1.166 69.959 25.457 96.704 20.273 22.321 51.491 32.528 81.072 26.385 37.588-7.806 55.294-37.196 67.307-70.926l.085.085c11.018-32.814 20.349-65.913 27.048-99.906l-.038-.037c5.941-30.886 9.791-62.157 11.405-93.569l-14.98-.748zm-204.882-47.243c-6.153-18.055-10.036-36.677-7.709-55.771l56.024 56.024c-9.499 15.079-19.31 33.88-27.811 56.716l-3.034-3.034c-3.813-18.577-11.378-36.054-17.47-53.935zm183.601 181.51c-2.652 10.036-5.534 20.005-8.65 29.907l-142.694-142.695c8.107-23.141 17.716-42.216 27.068-57.459l132.974 132.974c-2.558 12.517-5.452 24.964-8.698 37.273zm-16.752 54.055c-10.199 28.405-24.422 53.521-56.41 59.938-24.107 4.836-49.406-3.7-65.965-21.755-18.535-20.209-22.811-47.004-22.321-73.491.642-34.716 4.712-68.737 1.655-103.526 1.044-4.086 2.137-8.078 3.281-11.964l142.616 142.617c-.94 2.735-1.883 5.469-2.856 8.181zm-99.137-237.129c11.754-16.862 22.146-27.387 27.245-32.116 71.781 34.655 97.996 144.982 100.994 158.673-.083.479-.16.959-.245 1.438z"/><g fill="#fff"><path d="m469.905 138.96c-.519-5.324-1.352-10.605-2.477-15.699l-14.646 3.235c.995 4.508 1.733 9.19 2.193 13.917z"/><path d="m436.293 67.824-10.033 11.151c1.685 1.515 3.147 2.888 4.015 3.767 1.883 1.907 3.705 3.979 5.416 6.158l11.799-9.261c-2.06-2.625-4.261-5.126-6.54-7.435-1.386-1.403-3.298-3.156-4.657-4.38z"/><path d="m462.977 107.915c-1.869-5.127-4.086-10.066-6.589-14.681l-13.186 7.153c2.153 3.968 4.064 8.229 5.681 12.665z"/></g></g></g></svg>