<svg id="Capa_1" enable-background="new 0 0 512 512" height="512" viewBox="0 0 512 512" width="512" xmlns="http://www.w3.org/2000/svg"><g><g><path d="m499.456 131.736c2.82 0 5.077 2.325 5.02 5.144-2.739 134.885-112.935 243.384-248.476 243.384s-245.737-108.499-248.475-243.384c-.057-2.819 2.2-5.144 5.02-5.144h210.583c-.003.053-.006.106-.009.16-.924 16.787 11.049 31.843 27.667 34.398 17.229 2.649 32.463-8.101 36.854-23.433 4.163 18.899 21.006 33.033 41.149 33.033 23.273 0 42.132-18.859 42.132-42.132 0-.682-.02-1.354-.04-2.026z" fill="#51be60"/></g><g><path d="m499.456 131.736c2.82 0 5.077 2.325 5.02 5.144-2.739 134.885-112.935 243.384-248.476 243.384-39.363 0-76.58-9.149-109.653-25.439 26.112 9.329 54.25 14.405 83.572 14.405 133.558 0 242.519-105.35 248.287-237.493h21.25z" fill="#45ad4f"/></g><g><path d="m446.125 131.736c0 104.998-85.126 190.125-190.125 190.125s-190.125-85.126-190.125-190.125h157.252c-.04.672-.06 1.344-.06 2.026 0 18.187 14.746 32.933 32.933 32.933 15.017 0 27.697-10.071 31.639-23.835 4.163 18.899 21.006 33.033 41.149 33.033 23.273 0 42.132-18.859 42.132-42.132 0-.682-.02-1.354-.04-2.026h75.245z" fill="#ff4343"/></g><g><path d="m446.125 131.736c0 104.998-85.126 190.125-190.125 190.125-17.645 0-34.719-2.397-50.929-6.902 8.777 1.244 17.735 1.886 26.854 1.886 103.323 0 187.396-82.428 190.065-185.109z" fill="#e32929"/></g><g><path d="m263.524 279.104v-28.33c0-4.156-3.368-7.524-7.524-7.524s-7.524 3.368-7.524 7.524v28.33c0 4.156 3.368 7.524 7.524 7.524 4.156-.001 7.524-3.369 7.524-7.524z"/><path d="m338.816 264.439c1.276 0 2.57-.325 3.755-1.009 3.598-2.078 4.832-6.679 2.754-10.277l-14.165-24.534c-2.077-3.599-6.68-4.831-10.277-2.754-3.598 2.078-4.831 6.679-2.754 10.277l14.165 24.534c1.393 2.415 3.922 3.763 6.522 3.763z"/><path d="m395.668 202.81c1.185.684 2.479 1.009 3.755 1.009 2.6 0 5.129-1.349 6.522-3.763 2.078-3.598.844-8.199-2.754-10.277l-24.534-14.164c-3.601-2.077-8.2-.845-10.277 2.754-2.078 3.598-.844 8.199 2.754 10.277z"/><path d="m133.343 175.615-24.534 14.164c-3.598 2.078-4.831 6.679-2.754 10.277 1.393 2.414 3.922 3.763 6.522 3.763 1.276 0 2.571-.325 3.755-1.009l24.534-14.164c3.598-2.078 4.831-6.679 2.754-10.277-2.078-3.6-6.681-4.831-10.277-2.754z"/><path d="m169.429 263.43c1.185.684 2.478 1.009 3.755 1.009 2.6 0 5.129-1.349 6.522-3.763l14.165-24.534c2.078-3.598.844-8.2-2.754-10.277-3.6-2.078-8.201-.845-10.277 2.754l-14.165 24.534c-2.077 3.598-.844 8.2 2.754 10.277z"/><path d="m508.407 127.974c-2.377-2.426-5.556-3.762-8.952-3.762h-53.33-75.246c-2.036 0-3.984.825-5.401 2.285-1.417 1.462-2.182 3.434-2.119 5.468.018.596.037 1.191.037 1.796 0 5.361-1.255 10.695-3.662 15.487-6.459 12.856-20.649 20.562-34.917 18.89-14.419-1.689-26.705-12.7-29.832-26.896-.741-3.363-3.671-5.794-7.113-5.901-3.479-.132-6.518 2.137-7.467 5.447-.157.548-.386 1.235-.61 1.836-.029.078-.056.157-.085.234-2.108 5.507-5.839 9.899-11.013 12.79-2.911 1.627-6.144 2.663-9.45 3.084-6.477.825-13.271-.739-18.496-4.721-3.933-2.997-6.997-7.119-8.667-11.778-.762-2.126-1.081-4.21-1.316-6.43-.199-1.88.112-4.032-.336-5.859-.835-3.404-2.958-5.323-6.53-5.691-.256-.027-.515-.04-.776-.04h-157.251-53.33c-3.396 0-6.575 1.336-8.952 3.762-2.384 2.432-3.66 5.65-3.59 9.059 1.366 67.279 28.601 130.313 76.69 177.491 48.156 47.244 111.835 73.263 179.307 73.263 75.346 0 146.541-32.981 195.33-90.487 2.688-3.169 2.299-7.916-.869-10.604-3.169-2.689-7.916-2.298-10.604.869-45.925 54.129-112.939 85.174-183.857 85.174-63.507 0-123.444-24.49-168.769-68.957-44.661-43.815-70.213-102.153-72.12-164.523h43.402c2.018 52.544 25.08 102.574 64.003 138.237 3.062 2.807 7.822 2.6 10.63-.464 2.807-3.063 2.599-7.822-.465-10.629-35.821-32.823-57.118-78.808-59.126-127.144h142.36c1.641 12.024 8.59 22.376 18.396 28.63.121.078.243.156.365.233.595.375 1.217.738 1.833 1.082.047.026.093.052.14.077 3.965 2.19 8.337 3.732 12.992 4.448.157.024.314.034.471.057 11.743 1.668 23.963-2.047 32.742-9.842 1.144-1.016 2.362-2.229 3.385-3.379.152-.17.313-.33.462-.502-.648.752 6.467 8.218 7.246 8.983 2.797 2.749 5.915 5.17 9.271 7.199 3.374 2.039 6.987 3.681 10.745 4.873 4.774 1.514 9.865 2.298 14.825 2.298 25.521 0 46.609-19.356 49.353-44.158h60.308c-3.959 97.213-84.281 175.079-182.449 175.079-30.157 0-60.038-7.505-86.414-21.702-3.659-1.972-8.22-.6-10.191 3.058-1.969 3.659-.6 8.221 3.059 10.191 28.56 15.373 60.907 23.5 93.546 23.5 106.463 0 193.521-84.616 197.491-190.125h43.397c-1.192 38.606-11.726 76.646-30.529 110.177-2.032 3.624-.742 8.209 2.883 10.242 3.623 2.031 8.208.742 10.242-2.883 20.418-36.413 31.662-77.825 32.513-119.763.07-3.409-1.206-6.626-3.59-9.059z"/></g></g></svg>