<?xml version="1.0" encoding="iso-8859-1"?>
<!-- Generator: Adobe Illustrator 19.0.0, SVG Export Plug-In . SVG Version: 6.00 Build 0)  -->
<svg version="1.1" id="Capa_1" xmlns="http://www.w3.org/2000/svg" xmlns:xlink="http://www.w3.org/1999/xlink" x="0px" y="0px"
	 viewBox="0 0 512 512" style="enable-background:new 0 0 512 512;" xml:space="preserve">
<path style="fill:#D3874F;" d="M372.486,390.888H139.514l-24.939,24.979c-9.415,9.43-14.703,22.211-14.703,35.537v22.788
	c0,16.738,13.569,30.308,30.308,30.308h251.642c16.738,0,30.308-13.569,30.308-30.308v-22.788c0-13.326-5.288-26.107-14.703-35.537
	L372.486,390.888z"/>
<path style="fill:#B77344;" d="M236.04,474.192v-22.788c0-13.326,5.288-26.107,14.703-35.537l24.94-24.979H139.514l-24.939,24.979
	c-9.415,9.43-14.704,22.211-14.704,35.537v22.788c0,16.738,13.569,30.308,30.308,30.308h136.168
	C249.609,504.5,236.04,490.931,236.04,474.192z"/>
<path style="fill:#FFEB99;" d="M315.836,483.128H196.164c-8.883,0-16.151-7.268-16.151-16.151l0,0
	c0-8.883,7.268-16.151,16.151-16.151h119.671c8.883,0,16.151,7.268,16.151,16.151l0,0
	C331.986,475.86,324.719,483.128,315.836,483.128z"/>
<path style="fill:#FFD422;" d="M236.054,450.826h-39.889c-8.883,0-16.151,7.268-16.151,16.151s7.268,16.151,16.151,16.151h41.216
	c-0.87-2.825-1.341-5.825-1.341-8.935C236.04,474.192,236.052,451.019,236.054,450.826z"/>
<circle style="fill:#CAE7FC;" cx="256" cy="218.98" r="211.48"/>
<path style="fill:#B3DBF4;" d="M256,367.827c-82.072,0-148.844-66.771-148.844-148.845S173.928,70.138,256,70.138
	c82.073,0,148.845,66.771,148.845,148.845S338.073,367.827,256,367.827z"/>
<g>
	<circle style="fill:#FFFFFF;" cx="221.51" cy="133.26" r="7.83"/>
	<circle style="fill:#FFFFFF;" cx="158.33" cy="197.12" r="7.83"/>
	<circle style="fill:#FFFFFF;" cx="353.93" cy="212.78" r="7.83"/>
	<circle style="fill:#FFFFFF;" cx="312.48" cy="149.5" r="7.83"/>
</g>
<path style="fill:#B3DBF4;" d="M98.175,131.829c-3.536-2.157-4.653-6.772-2.496-10.309c14.668-24.043,34.922-44.847,58.571-60.164
	c3.475-2.253,8.12-1.26,10.372,2.218c2.252,3.477,1.259,8.12-2.218,10.372c-21.772,14.102-40.373,33.281-53.921,55.387
	C105.02,134.984,99.395,132.573,98.175,131.829z"/>
<g>
	<path style="fill:#3DA094;" d="M134.794,260.955c-7.42-10.316-22.719-10.437-30.025-0.04
		c-9.031,12.854-22.675,28.068-42.787,42.358c22.267,51.183,64.195,91.839,116.248,112.434V297.926
		C178.23,297.926,152.16,285.098,134.794,260.955z"/>
	<path style="fill:#3DA094;" d="M450.017,303.274c-20.112-14.29-33.755-29.505-42.787-42.359
		c-7.305-10.397-22.604-10.277-30.024,0.039c-17.365,24.143-43.436,36.971-43.436,36.971v117.781
		C385.822,395.112,427.75,354.457,450.017,303.274z"/>
</g>
<path style="fill:#4DB5A6;" d="M256,430.465c48.763,0,93.671-16.504,129.443-44.23c-31.274-24.703-49.943-59.107-49.943-59.107h-159
	c0,0-18.67,34.403-49.943,59.107C162.329,413.962,207.237,430.465,256,430.465z"/>
<path style="fill:#60C6B7;" d="M323.431,348.076c16.951,1.324,35.164-5.149,48.379-11.417c8.034-3.81,8.739-15.034,1.188-19.729
	c-31.876-19.821-58.467-54.111-58.467-54.111H197.469c0,0-26.591,34.291-58.467,54.111c-7.551,4.695-6.845,15.918,1.188,19.729
	c13.215,6.268,31.428,12.741,48.379,11.417c0,0.354-4.522,13.929-14.669,25.928c-5.208,6.159-1.62,15.654,6.394,16.568
	c20.928,2.384,53.129,1.261,75.705-21.902c22.576,23.163,54.777,24.286,75.705,21.902c8.014-0.913,11.602-10.408,6.394-16.568
	C327.952,362.005,323.431,348.43,323.431,348.076z"/>
<path style="fill:#71D8C5;" d="M331.068,248.308c-27.021-11.415-50.017-36.489-63.189-53.25c-6.042-7.688-17.715-7.688-23.757,0
	c-13.173,16.761-36.168,41.835-63.189,53.25c-5.746,2.428-5.944,10.522-0.366,13.314c16.197,8.11,22.677,10.331,22.677,10.331
	l-11.499,16.263c-3.951,5.588-0.263,13.344,6.565,13.801c17.208,1.153,44.578,0.709,57.691-11.709
	c13.112,12.418,40.482,12.861,57.69,11.709c6.829-0.457,10.517-8.213,6.565-13.801l-11.499-16.263c0,0,6.48-2.222,22.677-10.331
	C337.012,258.829,336.814,250.735,331.068,248.308z"/>
<path d="M386.824,394.634c8.42-6.299,16.45-13.239,24.019-20.808c41.36-41.36,64.139-96.352,64.139-154.844
	c0-19.64-2.602-39.113-7.732-57.88c-1.092-3.996-5.226-6.345-9.212-5.257c-3.996,1.092-6.35,5.217-5.257,9.212
	c4.778,17.479,7.201,35.622,7.201,53.925c0,25.494-4.715,49.904-13.296,72.422c-13.183-10.392-24.371-22.064-33.319-34.801
	c-4.851-6.903-12.467-10.89-20.896-10.936c-0.048-0.001-0.095-0.001-0.142-0.001c-8.372,0-16.294,4.071-21.212,10.909
	c-8.449,11.746-19.105,20.674-27.84,26.762c-4.853-4.751-9.093-9.244-12.508-13.019c1.274-0.624,2.609-1.284,4.022-1.991
	c5.248-2.627,8.391-7.91,8.201-13.786c-0.188-5.84-3.64-10.876-9.006-13.143v-0.001c-11.265-4.758-34.066-17.709-60.211-50.975
	c-4.312-5.486-10.79-8.633-17.775-8.633c-6.985,0-13.464,3.146-17.774,8.632c-26.146,33.267-48.947,46.218-60.212,50.977
	c-5.366,2.267-8.817,7.303-9.006,13.143c-0.189,5.876,2.953,11.159,8.201,13.786c1.414,0.708,2.75,1.368,4.024,1.992
	c-10.208,11.292-27.328,28.512-46.191,40.242c-5.805,3.608-9.169,10.099-8.781,16.938c0.391,6.88,4.496,12.986,10.716,15.936
	c4.417,2.095,9.554,4.286,15.126,6.232c-6.741,8.508-15.369,18.125-25.551,26.844c-23.249-19.139-42.193-43.318-55.17-70.843
	c15.728-11.9,29.011-25.478,39.524-40.442c2.022-2.878,5.195-4.54,8.705-4.56c0.021,0,0.043,0,0.063,0
	c3.606,0,6.896,1.699,9.031,4.668c3.358,4.669,7.249,9.254,11.562,13.626c2.909,2.949,7.658,2.979,10.606,0.073
	c2.949-2.909,2.981-7.658,0.073-10.606c-3.771-3.823-7.157-7.811-10.064-11.852c-4.918-6.839-12.839-10.909-21.212-10.909
	c-0.047,0-0.095,0-0.142,0.001c-8.43,0.046-16.046,4.032-20.896,10.936c-8.949,12.737-20.137,24.409-33.319,34.801
	c-8.581-22.518-13.296-46.928-13.296-72.422C52.018,106.506,143.523,15,256,15c81.134,0,154.546,48.053,187.025,122.421
	c1.658,3.795,6.078,5.53,9.875,3.871c3.796-1.658,5.529-6.079,3.871-9.875C421.905,51.584,343.098,0,256,0
	c-58.492,0-113.483,22.778-154.844,64.139S37.018,160.49,37.018,218.982s22.778,113.483,64.139,154.844
	c7.569,7.569,15.599,14.509,24.019,20.808l-15.909,15.934c-10.896,10.912-16.896,25.415-16.896,40.836v22.788
	c0,20.848,16.96,37.808,37.808,37.808h251.643c20.848,0,37.808-16.96,37.808-37.808v-22.788c0-15.421-6-29.924-16.896-40.836
	L386.824,394.634z M383.295,265.334c2.135-2.968,5.423-4.667,9.03-4.667c0.021,0,0.042,0,0.063,0c3.51,0.02,6.683,1.682,8.705,4.56
	c10.513,14.963,23.796,28.542,39.524,40.442c-12.977,27.526-31.922,51.705-55.171,70.844c-10.331-8.853-19.013-18.6-25.551-26.845
	c5.572-1.946,10.71-4.137,15.128-6.232c6.22-2.949,10.325-9.056,10.716-15.936c0.388-6.84-2.977-13.33-8.78-16.938
	c-7.905-4.915-15.514-10.813-22.432-16.825C363.778,286.983,374.522,277.532,383.295,265.334z M250.02,199.691
	c1.448-1.843,3.628-2.9,5.98-2.9c2.352,0,4.532,1.058,5.981,2.901c14.735,18.748,38.086,43.531,65.803,55.369
	c-15.117,7.557-21.417,9.782-21.46,9.797c-2.234,0.767-3.978,2.541-4.704,4.789s-0.351,4.707,1.013,6.636
	c0,0,11.82,17.094,11.61,17.536c-0.316,0.665-37.42,5.058-53.086-8.956c-1.485-1.328-3.302-2.055-5.157-2.055
	c-1.855,0-3.569,0.852-5.157,2.055c-17.472,13.224-52.77,9.621-53.086,8.956c-0.21-0.442,11.61-17.536,11.61-17.536
	c1.359-1.923,1.728-4.377,1.01-6.62c-0.719-2.243-2.458-4.021-4.682-4.798c-0.063-0.021-6.354-2.244-21.479-9.805
	C211.932,243.223,235.284,218.439,250.02,199.691z M141.236,326.65c-0.046-0.821,0.116-2.35,1.726-3.351
	c15.237-9.475,29.298-22.134,39.945-32.92c-0.597,3.299-0.181,6.761,1.307,9.887c2.563,5.384,7.645,8.835,13.594,9.233
	c18.574,1.246,42.778,0.379,58.192-9.696c12.08,7.896,29.562,10.136,45.497,10.136c4.397,0,8.678-0.17,12.694-0.439
	c5.95-0.398,11.032-3.85,13.595-9.233c1.481-3.11,1.9-6.553,1.316-9.838c10.812,10.97,24.725,23.412,39.936,32.871
	c1.609,1.001,1.771,2.529,1.726,3.351c-0.039,0.682-0.328,2.359-2.168,3.232c-11.726,5.561-28.972,11.932-44.581,10.716
	c-2.084-0.16-4.141,0.552-5.677,1.972c-1.534,1.42-2.407,3.415-2.407,5.506c0,3.46,6.211,18.673,16.441,30.771
	c0.962,1.138,0.65,2.307,0.472,2.757c-0.244,0.616-0.787,1.379-1.987,1.516c-37.419,4.261-58.44-8.352-69.485-19.685
	c-1.412-1.449-3.349-2.266-5.371-2.266c-2.022,0-3.959,0.816-5.371,2.266c-11.046,11.332-32.062,23.95-69.485,19.685
	c-1.2-0.137-1.744-0.899-1.988-1.516c-0.179-0.45-0.489-1.619,0.474-2.757c10.229-12.099,16.44-27.312,16.44-30.771
	c0-2.091-0.873-4.086-2.407-5.506c-1.536-1.42-3.594-2.13-5.677-1.972c-15.604,1.218-32.855-5.154-44.581-10.716
	C141.564,329.01,141.275,327.332,141.236,326.65z M167.705,353.998c3.152,0.635,6.353,1.133,9.574,1.429
	c-2.118,4.083-5.116,9.02-9.104,13.735c-4.238,5.011-5.373,11.897-2.963,17.974c2.375,5.986,12.734,11.839,30.419,11.839
	c28.979,0,48.172-9.741,60.369-20.064c14.339,12.137,38.345,23.466,76.554,19.114c6.404-0.73,11.857-4.902,14.233-10.888
	c2.41-6.076,1.275-12.964-2.961-17.975c-3.988-4.716-6.986-9.652-9.104-13.735c3.218-0.295,6.417-0.793,9.567-1.428
	c6.833,9.095,16.731,20.897,28.981,31.792c-33.196,23.407-73.654,37.174-117.27,37.174c-43.615,0-84.072-13.766-117.267-37.172
	C150.713,375.144,160.52,363.564,167.705,353.998z M404.629,474.192c0,12.576-10.231,22.808-22.808,22.808H130.179
	c-12.576,0-22.808-10.231-22.808-22.808v-22.788c0-11.419,4.443-22.158,12.511-30.238l17.81-17.838
	C172.665,425.871,213.4,437.965,256,437.965s83.335-12.094,118.308-34.637l17.81,17.838c8.067,8.08,12.511,18.819,12.511,30.238
	L404.629,474.192L404.629,474.192z"/>
<path d="M315.836,443.326H196.164c-13.041,0-23.65,10.609-23.65,23.65s10.609,23.651,23.65,23.651h119.672
	c13.041,0,23.65-10.61,23.65-23.651S328.877,443.326,315.836,443.326z M315.836,475.628H196.164c-4.77,0-8.65-3.881-8.65-8.651
	s3.881-8.65,8.65-8.65h119.672c4.77,0,8.65,3.881,8.65,8.65C324.486,471.747,320.605,475.628,315.836,475.628z"/>
<g>
</g>
<g>
</g>
<g>
</g>
<g>
</g>
<g>
</g>
<g>
</g>
<g>
</g>
<g>
</g>
<g>
</g>
<g>
</g>
<g>
</g>
<g>
</g>
<g>
</g>
<g>
</g>
<g>
</g>
</svg>
